PathFileType	4	(X/Y/Z)	s03c0302.trc
DataRate	CameraRate	NumFrames	NumMarkers	Units	OrigDataRate	OrigDataStartFrame	OrigNumFrames
200	200	6	52	mm	200	250	2000
Frame#	Time	racr			lacr			c7			jug			rlel			rdr			llel			ldr			s2			lic			ric			lasi			rasi			rpsi			lpsi			rgt			lgt			rth1			rth2			rth3			rth4			rlfc			rmfc			rsh1			rsh2			rsh3			rsh4			rlmal			rmmal			rcal			rtoe			rmt5			rmt1			lth1			lth2			lth4			lth3			llfc			lmfc			lsh1			lsh2			lsh3			lsh4			llmal			lmmal			lcal			ltoe			lmt1			lmt5			SBIKE			LBIKE			RBIKE			
		X1	Y1	Z1	X2	Y2	Z2	X3	Y3	Z3	X4	Y4	Z4	X5	Y5	Z5	X6	Y6	Z6	X7	Y7	Z7	X8	Y8	Z8	X9	Y9	Z9	X10	Y10	Z10	X11	Y11	Z11	X12	Y12	Z12	X13	Y13	Z13	X14	Y14	Z14	X15	Y15	Z15	X16	Y16	Z16	X17	Y17	Z17	X18	Y18	Z18	X19	Y19	Z19	X20	Y20	Z20	X21	Y21	Z21	X22	Y22	Z22	X23	Y23	Z23	X24	Y24	Z24	X25	Y25	Z25	X26	Y26	Z26	X27	Y27	Z27	X28	Y28	Z28	X29	Y29	Z29	X30	Y30	Z30	X31	Y31	Z31	X32	Y32	Z32	X33	Y33	Z33	X34	Y34	Z34	X35	Y35	Z35	X36	Y36	Z36	X37	Y37	Z37	X38	Y38	Z38	X39	Y39	Z39	X40	Y40	Z40	X41	Y41	Z41	X42	Y42	Z42	X43	Y43	Z43	X44	Y44	Z44	X45	Y45	Z45	X46	Y46	Z46	X47	Y47	Z47	X48	Y48	Z48	X49	Y49	Z49	X50	Y50	Z50	X51	Y51	Z51	X52	Y52	Z52	
250	1.2500	501.517339	1409.765236	-86.344995	491.960326	1420.343553	-416.873708	426.504391	1504.807051	-250.111936	465.357019	1339.688802	-245.872398	539.269546	1144.838750	7.980237	749.293693	946.695665	-42.143688	547.287180	1154.391485	-485.473875	754.134016	935.829269	-433.583928	-80.884947	1206.985905	-249.265475	109.694974	1207.865620	-431.031665	94.802004	1236.400854	-62.271419	120.175596	1130.383253	-389.675249	106.170882	1171.131804	-103.806998	-49.775355	1256.754332	-206.567738	-42.431575	1251.649134	-289.093271	31.222338	1157.783303	-42.060590	32.251502	1097.078696	-443.827403	156.875886	1072.474203	-26.778665	245.834259	1071.376821	-27.027461	321.444901	1029.425751	-28.936569	255.355304	1104.137329	-42.647937	438.446304	966.839974	-50.280604	443.638536	950.807797	-176.960799	362.781864	820.532940	-30.875172	335.594701	737.634949	-48.324714	269.665558	678.355446	-50.546348	360.473110	725.636154	-75.487997	193.192740	569.490244	-73.029921	217.054211	581.691167	-162.653676	121.963815	525.968435	-114.094675	430.836242	508.583087	-119.919522	312.750096	496.894477	-48.075028	336.558422	510.942539	-163.374970	92.291126	945.934806	-458.652055	147.728044	879.378030	-462.458233	181.488580	894.975751	-458.788341	164.568074	792.623414	-447.929729	236.081511	683.315048	-428.168632	238.024888	675.373060	-306.150665	154.275544	530.288972	-451.561138	144.028965	447.634897	-432.429074	89.660468	374.743844	-425.917287	172.431389	439.867320	-407.317641	33.945920	259.239634	-403.517609	67.889461	270.173053	-312.636631	-33.512472	212.451901	-352.645140	275.033707	195.405596	-362.043345	184.060841	195.781694	-316.325103	153.253607	175.352106	-430.360383	-217.905959	944.221361	-234.751082	-12.043563	80.877928	-435.634887	-12.110937	81.032291	-35.224609	
251	1.2550	501.528980	1409.771256	-86.373352	491.962154	1420.332940	-416.923406	426.517086	1504.799629	-250.159240	465.396673	1339.678285	-245.925646	539.279953	1144.839165	7.987031	749.304269	946.678243	-42.155892	547.258812	1154.369936	-485.567157	754.129269	935.823169	-433.591847	-80.870919	1206.968697	-249.315656	109.740813	1207.844559	-431.108162	94.771443	1236.400763	-62.300903	120.165844	1130.345587	-389.633976	106.142294	1171.146188	-103.809759	-49.763064	1256.737757	-206.614727	-42.423736	1251.631145	-289.133169	31.201976	1157.777939	-42.093345	32.299677	1097.046095	-443.862309	156.856190	1072.494345	-26.778511	245.828759	1071.395836	-27.031412	321.416023	1029.430069	-28.930322	255.345099	1104.133498	-42.654409	438.454706	966.817971	-50.259483	443.645686	950.804098	-176.948905	362.784677	820.506138	-30.867804	335.624775	737.628275	-48.285438	269.679255	678.328056	-50.544375	360.484209	725.607138	-75.466008	193.234108	569.422339	-73.026099	217.073902	581.679460	-162.668905	122.020279	525.917385	-114.098101	430.896550	508.562599	-119.912515	312.813284	496.862830	-48.091881	336.600918	510.925714	-163.380643	92.346473	945.908742	-458.643948	147.782827	879.379669	-462.476262	181.533369	894.966402	-458.798312	164.651405	792.624373	-447.932178	236.166222	683.323533	-428.185255	238.082742	675.372493	-306.144669	154.325641	530.306109	-451.571495	144.057226	447.648560	-432.447228	89.664918	374.790331	-425.920370	172.441016	439.875385	-407.295366	33.911215	259.312472	-403.506037	67.864631	270.196390	-312.608322	-33.553742	212.527295	-352.647232	274.961675	195.424861	-362.048429	184.026610	195.816370	-316.349246	153.198743	175.407682	-430.374631	-217.913963	944.226252	-234.758426	-12.051403	80.875674	-435.630094	-12.114154	81.030161	-35.237475	
252	1.2600	501.564661	1409.792286	-86.402480	491.987126	1420.305691	-416.960935	426.521490	1504.782039	-250.194516	465.432534	1339.653489	-245.927708	539.292977	1144.851774	7.975081	749.317075	946.682118	-42.143309	547.233866	1154.333294	-485.637515	754.110643	935.844863	-433.588180	-80.842486	1206.915579	-249.436033	109.753565	1207.801911	-431.080649	94.752935	1236.420180	-62.316656	120.156237	1130.297046	-389.594336	106.116219	1171.172157	-103.780438	-49.748467	1256.711562	-206.675213	-42.411977	1251.609802	-289.197909	31.178699	1157.768053	-42.143661	32.332649	1097.016072	-443.912013	156.852116	1072.493881	-26.808886	245.812767	1071.385493	-27.026848	321.413226	1029.441818	-28.909296	255.339015	1104.143380	-42.655258	438.439439	966.811274	-50.214930	443.662117	950.786349	-176.938866	362.794578	820.485007	-30.844250	335.670209	737.615287	-48.283800	269.724854	678.294893	-50.530393	360.526822	725.600099	-75.451885	193.287154	569.354819	-73.019821	217.143704	581.641520	-162.657124	122.078663	525.860084	-114.113440	430.955821	508.540289	-119.921185	312.881778	496.829708	-48.093341	336.666226	510.886777	-163.371678	92.385296	945.898937	-458.657802	147.845344	879.356968	-462.467270	181.597630	894.961903	-458.795854	164.725556	792.607079	-447.935164	236.270126	683.311604	-428.180656	238.125159	675.368677	-306.174334	154.383351	530.335220	-451.571877	144.070511	447.675238	-432.442260	89.659070	374.834952	-425.919789	172.447143	439.881383	-407.284658	33.857253	259.389818	-403.512489	67.836585	270.264183	-312.623327	-33.605451	212.617333	-352.654172	274.894346	195.444176	-362.050983	183.960128	195.826848	-316.330962	153.140465	175.431388	-430.352342	-217.908667	944.217911	-234.747068	-12.045315	80.873267	-435.642185	-12.113670	81.038308	-35.242863	
253	1.2650	501.591304	1409.798877	-86.436363	491.997014	1420.297389	-417.028492	426.541966	1504.756746	-250.282313	465.471490	1339.655946	-245.976279	539.307599	1144.857073	7.982005	749.313148	946.684793	-42.144842	547.206382	1154.295648	-485.728525	754.091261	935.844639	-433.577050	-80.841489	1206.903014	-249.468735	109.775000	1207.764630	-431.121324	94.762874	1236.417677	-62.359014	120.190579	1130.282785	-389.625158	106.148054	1171.148071	-103.853221	-49.736517	1256.694999	-206.720548	-42.404908	1251.573954	-289.243009	31.182014	1157.751656	-42.199831	32.381244	1096.971751	-443.947115	156.850568	1072.506386	-26.818435	245.804039	1071.386038	-27.018913	321.404320	1029.434668	-28.902069	255.317422	1104.140450	-42.638379	438.437410	966.808650	-50.198032	443.670449	950.768825	-176.889240	362.808147	820.451360	-30.838115	335.687354	737.575970	-48.268324	269.763515	678.255218	-50.530660	360.563839	725.582451	-75.436250	193.348788	569.300659	-73.039699	217.188825	581.599424	-162.671563	122.140358	525.803829	-114.127681	431.011758	508.507697	-119.916839	312.963805	496.761542	-48.100300	336.730034	510.839334	-163.374230	92.437686	945.874717	-458.656262	147.897487	879.343460	-462.461531	181.662411	894.943994	-458.807865	164.790735	792.596360	-447.923487	236.466312	683.161356	-427.907812	238.183246	675.370525	-306.163567	154.440247	530.336867	-451.563474	144.093398	447.689176	-432.422283	89.651736	374.870478	-425.923518	172.459828	439.875941	-407.243800	33.824000	259.449380	-403.488296	67.712222	270.355416	-312.591597	-33.665976	212.684599	-352.636625	274.838221	195.449490	-362.073518	183.921247	195.868722	-316.317705	153.076095	175.465791	-430.355167	-217.908427	944.214874	-234.745081	-12.038153	80.895129	-435.622784	-12.114794	81.023631	-35.218279	
254	1.2700	501.624224	1409.802020	-86.457449	492.018515	1420.286330	-417.072318	426.547448	1504.750717	-250.339418	465.512002	1339.647415	-246.024868	539.316764	1144.861237	8.000713	749.311547	946.690152	-42.154898	547.164960	1154.274559	-485.825723	754.084793	935.852114	-433.581442	-80.807366	1206.869398	-249.542633	109.780847	1207.732870	-431.158043	94.747588	1236.407079	-62.406484	120.223284	1130.251799	-389.656204	106.151883	1171.113106	-103.927919	-49.728418	1256.671883	-206.777275	-42.406396	1251.551752	-289.291509	31.180447	1157.726765	-42.248837	32.414271	1096.937160	-443.970173	156.841199	1072.479214	-26.828379	245.778598	1071.373147	-27.029128	321.390263	1029.427725	-28.883111	255.312010	1104.134244	-42.635663	438.436325	966.773971	-50.174223	443.695514	950.752115	-176.836688	362.822856	820.401016	-30.819856	335.719418	737.507201	-48.257433	269.792896	678.224070	-50.533382	360.608011	725.556734	-75.397054	193.399501	569.256161	-73.057034	217.248467	581.564456	-162.670806	122.213111	525.728736	-114.164123	431.076378	508.493749	-119.934004	313.002752	496.720452	-48.106448	336.790003	510.809177	-163.387659	92.483856	945.854516	-458.656040	147.962183	879.334042	-462.480958	181.719360	894.938354	-458.828130	164.871990	792.575758	-447.928102	236.547873	683.155394	-427.913636	238.238355	675.374601	-306.182321	154.490879	530.346954	-451.578181	144.109014	447.722077	-432.417605	89.657316	374.904191	-425.924723	172.478356	439.909561	-407.249514	33.760586	259.553770	-403.515081	67.674254	270.410946	-312.576346	-33.729321	212.774675	-352.627658	274.786442	195.462871	-362.054692	183.869055	195.874342	-316.287616	153.005000	175.495884	-430.363272	-217.910538	944.222984	-234.771420	-12.045174	80.859858	-435.636443	-12.114922	81.033814	-35.230300	
255	1.2750	501.653459	1409.819343	-86.509521	492.031011	1420.266034	-417.161188	426.549386	1504.728461	-250.378671	465.531025	1339.649544	-246.051236	539.327720	1144.858624	7.993941	749.291793	946.686657	-42.148699	547.131535	1154.240174	-485.904712	754.073405	935.874458	-433.597687	-80.809946	1206.844549	-249.585880	109.787178	1207.690529	-431.172503	94.720426	1236.402640	-62.446425	120.216499	1130.204209	-389.620027	106.151883	1171.113106	-103.927919	-49.721726	1256.651053	-206.804944	-42.390732	1251.514640	-289.359423	31.177667	1157.697574	-42.318466	32.456819	1096.918873	-444.000681	156.813881	1072.473679	-26.834136	245.786248	1071.357680	-27.024199	321.374529	1029.407446	-28.868410	255.312701	1104.123626	-42.635334	438.438987	966.757863	-50.139833	443.714513	950.726559	-176.817364	362.838113	820.353772	-30.794929	335.736612	737.458508	-48.247238	269.835672	678.174217	-50.531666	360.642399	725.517601	-75.381527	193.478916	569.170169	-73.056160	217.303938	581.524615	-162.694099	122.285188	525.660985	-114.164396	431.136718	508.459928	-119.922353	313.081734	496.688518	-48.099707	336.869438	510.767019	-163.381105	92.539836	945.826930	-458.664290	148.030163	879.299431	-462.473053	181.779495	894.919392	-458.833905	164.953332	792.558681	-447.926334	236.622921	683.130371	-427.913374	238.290009	675.374458	-306.193611	154.534032	530.363058	-451.562615	144.132183	447.741303	-432.405056	89.647766	374.941568	-425.921445	172.486774	439.937186	-407.227547	33.710582	259.618618	-403.523846	67.568632	270.513371	-312.554107	-33.807617	212.856548	-352.630607	274.732641	195.485624	-362.054432	183.818388	195.923986	-316.326569	152.940273	175.529778	-430.339505	-217.912217	944.219517	-234.761300	-12.033340	80.857570	-435.634206	-12.077275	80.970515	-35.210964	
